{
    "streams": [
        {
            "index": 0,
            "codec_name": "dvvideo",
            "codec_long_name": "DV (Digital Video)",
            "codec_type": "video",
            "codec_time_base": "1001/30000",
            "codec_tag_string": "dvc ",
            "codec_tag": "0x20637664",
            "width": 720,
            "height": 480,
            "has_b_frames": 0,
            "sample_aspect_ratio": "10:11",
            "display_aspect_ratio": "15:11",
            "pix_fmt": "yuv411p",
            "level": -99,
            "color_space": "bt470bg",
            "color_transfer": "bt709",
            "color_primaries": "smpte240m",
            "chroma_location": "topleft",
            "refs": 1,
            "r_frame_rate": "2997/100",
            "avg_frame_rate": "587420991/19600378",
            "time_base": "1/2997",
            "start_pts": -78,
            "start_time": "-0.026026",
            "duration_ts": 19600378,
            "duration": "6539.999333",
            "bit_rate": "28771085",
            "nb_frames": "196003",
            "disposition": {
                "default": 1,
                "dub": 0,
                "original": 0,
                "comment": 0,
                "lyrics": 0,
                "karaoke": 0,
                "forced": 0,
                "hearing_impaired": 0,
                "visual_impaired": 0,
                "clean_effects": 0,
                "attached_pic": 0
            },
            "tags": {
                "creation_time": "2013-08-05 15:09:28",
                "language": "eng",
                "handler_name": "Apple Alias Data Handler",
                "encoder": "DV/DVCPRO - NTSC"
            }
        },
        {
            "index": 1,
            "codec_name": "pcm_s16le",
            "codec_long_name": "PCM signed 16-bit little-endian",
            "codec_type": "audio",
            "codec_time_base": "1/47997",
            "codec_tag_string": "sowt",
            "codec_tag": "0x74776f73",
            "sample_fmt": "s16",
            "sample_rate": "47997",
            "channels": 1,
            "channel_layout": "mono",
            "bits_per_sample": 16,
            "r_frame_rate": "0/0",
            "avg_frame_rate": "0/0",
            "time_base": "1/47997",
            "start_pts": 0,
            "start_time": "0.000000",
            "duration_ts": 313919116,
            "duration": "6540.390358",
            "bit_rate": "767952",
            "nb_frames": "313919116",
            "disposition": {
                "default": 1,
                "dub": 0,
                "original": 0,
                "comment": 0,
                "lyrics": 0,
                "karaoke": 0,
                "forced": 0,
                "hearing_impaired": 0,
                "visual_impaired": 0,
                "clean_effects": 0,
                "attached_pic": 0
            },
            "tags": {
                "creation_time": "2013-08-05 15:09:37",
                "language": "eng",
                "handler_name": "Apple Alias Data Handler"
            }
        },
        {
            "index": 2,
            "codec_name": "pcm_s16le",
            "codec_long_name": "PCM signed 16-bit little-endian",
            "codec_type": "audio",
            "codec_time_base": "1/47997",
            "codec_tag_string": "sowt",
            "codec_tag": "0x74776f73",
            "sample_fmt": "s16",
            "sample_rate": "47997",
            "channels": 1,
            "channel_layout": "mono",
            "bits_per_sample": 16,
            "r_frame_rate": "0/0",
            "avg_frame_rate": "0/0",
            "time_base": "1/47997",
            "start_pts": 0,
            "start_time": "0.000000",
            "duration_ts": 313919116,
            "duration": "6540.390358",
            "bit_rate": "767952",
            "nb_frames": "313919116",
            "disposition": {
                "default": 1,
                "dub": 0,
                "original": 0,
                "comment": 0,
                "lyrics": 0,
                "karaoke": 0,
                "forced": 0,
                "hearing_impaired": 0,
                "visual_impaired": 0,
                "clean_effects": 0,
                "attached_pic": 0
            },
            "tags": {
                "creation_time": "2013-08-05 15:09:37",
                "language": "eng",
                "handler_name": "Apple Alias Data Handler"
            }
        }
    ],
    "format": {
        "filename": "/media/mammoth-bats/CORO Bat Survey 2013/SOT_03AUG13/SOT_03AUG13_Cam1_Tape3.mov",
        "nb_streams": 3,
        "nb_programs": 0,
        "format_name": "mov,mp4,m4a,3gp,3g2,mj2",
        "format_long_name": "QuickTime / MOV",
        "start_time": "-0.026026",
        "duration": "6539.939940",
        "size": "24781723004",
        "bit_rate": "30314312",
        "probe_score": 100,
        "tags": {
            "creation_time": "2013-08-05 13:20:27"
        }
    }
}
{
    "streams": [
        {
            "index": 0,
            "codec_name": "dvvideo",
            "codec_long_name": "DV (Digital Video)",
            "codec_type": "video",
            "codec_time_base": "1001/30000",
            "codec_tag_string": "dvc ",
            "codec_tag": "0x20637664",
            "width": 720,
            "height": 480,
            "has_b_frames": 0,
            "sample_aspect_ratio": "10:11",
            "display_aspect_ratio": "15:11",
            "pix_fmt": "yuv411p",
            "level": -99,
            "color_space": "bt470bg",
            "color_transfer": "bt709",
            "color_primaries": "smpte240m",
            "chroma_location": "topleft",
            "refs": 1,
            "r_frame_rate": "2997/100",
            "avg_frame_rate": "592803603/19781152",
            "time_base": "1/2997",
            "start_pts": -1252,
            "start_time": "-0.417751",
            "duration_ts": 19781152,
            "duration": "6600.317651",
            "bit_rate": "28769378",
            "nb_frames": "197799",
            "disposition": {
                "default": 1,
                "dub": 0,
                "original": 0,
                "comment": 0,
                "lyrics": 0,
                "karaoke": 0,
                "forced": 0,
                "hearing_impaired": 0,
                "visual_impaired": 0,
                "clean_effects": 0,
                "attached_pic": 0
            },
            "tags": {
                "creation_time": "2013-08-07 10:33:44",
                "language": "eng",
                "handler_name": "Apple Alias Data Handler",
                "encoder": "DV/DVCPRO - NTSC"
            }
        },
        {
            "index": 1,
            "codec_name": "pcm_s16le",
            "codec_long_name": "PCM signed 16-bit little-endian",
            "codec_type": "audio",
            "codec_time_base": "1/47997",
            "codec_tag_string": "sowt",
            "codec_tag": "0x74776f73",
            "sample_fmt": "s16",
            "sample_rate": "47997",
            "channels": 1,
            "channel_layout": "mono",
            "bits_per_sample": 16,
            "r_frame_rate": "0/0",
            "avg_frame_rate": "0/0",
            "time_base": "1/47997",
            "start_pts": 0,
            "start_time": "0.000000",
            "duration_ts": 316795288,
            "duration": "6600.314353",
            "bit_rate": "767952",
            "nb_frames": "316795288",
            "disposition": {
                "default": 1,
                "dub": 0,
                "original": 0,
                "comment": 0,
                "lyrics": 0,
                "karaoke": 0,
                "forced": 0,
                "hearing_impaired": 0,
                "visual_impaired": 0,
                "clean_effects": 0,
                "attached_pic": 0
            },
            "tags": {
                "creation_time": "2013-08-07 10:57:28",
                "language": "eng",
                "handler_name": "Apple Alias Data Handler"
            }
        },
        {
            "index": 2,
            "codec_name": "pcm_s16le",
            "codec_long_name": "PCM signed 16-bit little-endian",
            "codec_type": "audio",
            "codec_time_base": "1/47997",
            "codec_tag_string": "sowt",
            "codec_tag": "0x74776f73",
            "sample_fmt": "s16",
            "sample_rate": "47997",
            "channels": 1,
            "channel_layout": "mono",
            "bits_per_sample": 16,
            "r_frame_rate": "0/0",
            "avg_frame_rate": "0/0",
            "time_base": "1/47997",
            "start_pts": 0,
            "start_time": "0.000000",
            "duration_ts": 316795288,
            "duration": "6600.314353",
            "bit_rate": "767952",
            "nb_frames": "316795288",
            "disposition": {
                "default": 1,
                "dub": 0,
                "original": 0,
                "comment": 0,
                "lyrics": 0,
                "karaoke": 0,
                "forced": 0,
                "hearing_impaired": 0,
                "visual_impaired": 0,
                "clean_effects": 0,
                "attached_pic": 0
            },
            "tags": {
                "creation_time": "2013-08-07 10:57:28",
                "language": "eng",
                "handler_name": "Apple Alias Data Handler"
            }
        }
    ],
    "format": {
        "filename": "/media/mammoth-bats/CORO Bat Survey 2013/SOT_03AUG13/SOT_03AUG13_Cam1_Tape5.mov",
        "nb_streams": 3,
        "nb_programs": 0,
        "format_name": "mov,mp4,m4a,3gp,3g2,mj2",
        "format_long_name": "QuickTime / MOV",
        "start_time": "-0.417751",
        "duration": "6599.866533",
        "size": "25008800352",
        "bit_rate": "30314310",
        "probe_score": 100,
        "tags": {
            "creation_time": "2013-08-07 08:43:43"
        }
    }
}
{
    "streams": [
        {
            "index": 0,
            "codec_name": "dvvideo",
            "codec_long_name": "DV (Digital Video)",
            "codec_type": "video",
            "codec_time_base": "1001/30000",
            "codec_tag_string": "dvc ",
            "codec_tag": "0x20637664",
            "width": 720,
            "height": 480,
            "has_b_frames": 0,
            "sample_aspect_ratio": "10:11",
            "display_aspect_ratio": "15:11",
            "pix_fmt": "yuv411p",
            "level": -99,
            "color_space": "bt470bg",
            "color_transfer": "bt709",
            "color_primaries": "smpte240m",
            "chroma_location": "topleft",
            "refs": 1,
            "r_frame_rate": "2997/100",
            "avg_frame_rate": "22554423/752567",
            "time_base": "1/2997",
            "start_pts": -9,
            "start_time": "-0.003003",
            "duration_ts": 20319309,
            "duration": "6779.882883",
            "bit_rate": "28771187",
            "nb_frames": "203193",
            "disposition": {
                "default": 1,
                "dub": 0,
                "original": 0,
                "comment": 0,
                "lyrics": 0,
                "karaoke": 0,
                "forced": 0,
                "hearing_impaired": 0,
                "visual_impaired": 0,
                "clean_effects": 0,
                "attached_pic": 0
            },
            "tags": {
                "creation_time": "2013-08-07 03:46:36",
                "language": "eng",
                "handler_name": "Apple Alias Data Handler",
                "encoder": "DV/DVCPRO - NTSC"
            }
        }
    ],
    "format": {
        "filename": "/media/mammoth-bats/CORO Bat Survey 2013/SOT_03AUG13/SOT_03Aug13_Cam3_Tape4.mov",
        "nb_streams": 1,
        "nb_programs": 0,
        "format_name": "mov,mp4,m4a,3gp,3g2,mj2",
        "format_long_name": "QuickTime / MOV",
        "start_time": "-0.003003",
        "duration": "6779.846513",
        "size": "24385264698",
        "bit_rate": "28773825",
        "probe_score": 100,
        "tags": {
            "creation_time": "2013-08-07 01:53:25"
        }
    }
}
